<svg width="18" height="22" viewBox="0 0 18 22" fill="none" xmlns="http://www.w3.org/2000/svg">
<path d="M13.86 11.72C13.86 9.56 15.57 8.57 15.66 8.48C14.67 7.04 13.14 6.86 12.6 6.86C11.34 6.77 10.08 7.67 9.45003 7.67C8.82003 7.67 7.74003 6.95 6.66003 6.95C5.22003 6.95 3.87003 7.85 3.06003 9.11C1.53003 11.81 2.70003 15.68 4.14003 17.84C4.86003 18.92 5.76003 20.09 6.84003 20.09C7.92003 20.09 8.28003 19.37 9.63003 19.37C10.98 19.37 11.34 20.09 12.42 20.09C13.59 20.09 14.31 19.01 15.03 17.93C15.84 16.76 16.2 15.5 16.2 15.5C16.11 15.5 13.95 14.6 13.86 12.08V11.72ZM11.79 5.06C12.42 4.34 12.78 3.26 12.69 2.27C11.79 2.27 10.71 2.9 10.08 3.62C9.54003 4.25 9.00003 5.33 9.18003 6.32C10.17 6.41 11.16 5.78 11.79 5.06Z" fill="black"/>
</svg>
