<svg width="20" height="20" viewBox="0 0 20 20" fill="none" xmlns="http://www.w3.org/2000/svg">
<g clip-path="url(#clip0_443_214)">
<path d="M8.32935 9.99512H11.6611" stroke="#C27AFF" stroke-width="1.66587" stroke-linecap="round" stroke-linejoin="round"/>
<path d="M8.32935 6.66357H11.6611" stroke="#C27AFF" stroke-width="1.66587" stroke-linecap="round" stroke-linejoin="round"/>
<path d="M11.6611 17.4918V14.993C11.6611 14.5512 11.4856 14.1275 11.1732 13.8151C10.8608 13.5027 10.437 13.3271 9.99522 13.3271C9.5534 13.3271 9.12968 13.5027 8.81727 13.8151C8.50486 14.1275 8.32935 14.5512 8.32935 14.993V17.4918" stroke="#C27AFF" stroke-width="1.66587" stroke-linecap="round" stroke-linejoin="round"/>
<path d="M4.99751 8.32937H3.33164C2.88982 8.32937 2.4661 8.50488 2.15369 8.81729C1.84128 9.1297 1.66577 9.55342 1.66577 9.99524V15.8258C1.66577 16.2676 1.84128 16.6913 2.15369 17.0037C2.4661 17.3161 2.88982 17.4917 3.33164 17.4917H16.6586C17.1004 17.4917 17.5241 17.3161 17.8365 17.0037C18.149 16.6913 18.3245 16.2676 18.3245 15.8258V7.49644C18.3245 7.05462 18.149 6.6309 17.8365 6.31849C17.5241 6.00608 17.1004 5.83057 16.6586 5.83057H14.9927" stroke="#C27AFF" stroke-width="1.66587" stroke-linecap="round" stroke-linejoin="round"/>
<path d="M4.99756 17.4918V4.16489C4.99756 3.72308 5.17307 3.29936 5.48548 2.98695C5.79789 2.67453 6.22161 2.49902 6.66343 2.49902H13.3269C13.7687 2.49902 14.1924 2.67453 14.5049 2.98695C14.8173 3.29936 14.9928 3.72308 14.9928 4.16489V17.4918" stroke="#C27AFF" stroke-width="1.66587" stroke-linecap="round" stroke-linejoin="round"/>
</g>
<defs>
<clipPath id="clip0_443_214">
<rect width="19.9904" height="19.9904" fill="white"/>
</clipPath>
</defs>
</svg>
