<svg width="26" height="26" viewBox="0 0 26 26" fill="none" xmlns="http://www.w3.org/2000/svg">
<g clip-path="url(#clip0_278_1953)">
<rect width="25" height="25" transform="matrix(-0.99998 0.00627382 0.00627382 0.99998 24.9995 0)" fill="#FAF5FF" fill-opacity="0.5"/>
<path d="M23.6194 1.39746L15.2862 1.44974L15.3385 9.78291L23.6717 9.73063L23.6194 1.39746Z" stroke="#7721AB" stroke-width="2" stroke-linecap="round" stroke-linejoin="round"/>
<path d="M9.81787 15.3735L1.4847 15.4258L1.53698 23.759L9.87015 23.7067L9.81787 15.3735Z" stroke="#A90ED8" stroke-width="2" stroke-linecap="round" stroke-linejoin="round"/>
<path d="M23.7065 15.2861L15.3734 15.3384L15.4257 23.6716L23.7588 23.6193L23.7065 15.2861Z" stroke="#801DD9" stroke-width="2" stroke-linecap="round" stroke-linejoin="round"/>
<path d="M9.75685 5.65145C9.76202 6.47552 9.52271 7.28262 9.06918 7.97068C8.61565 8.65875 7.96827 9.19687 7.2089 9.51701C6.44954 9.83714 5.61229 9.92491 4.80305 9.76921C3.9938 9.61352 3.2489 9.22135 2.66253 8.64229C2.07617 8.06324 1.67468 7.32332 1.50884 6.51609C1.343 5.70886 1.42026 4.87058 1.73084 4.10726C2.04143 3.34393 2.57139 2.68985 3.2537 2.22772C3.93602 1.76559 4.74006 1.51617 5.56413 1.511C6.66918 1.50407 7.73172 1.9364 8.51801 2.71288C9.30429 3.48937 9.74992 4.5464 9.75685 5.65145Z" stroke="#C020F0" stroke-width="2" stroke-linecap="round" stroke-linejoin="round"/>
</g>
<defs>
<clipPath id="clip0_278_1953">
<rect width="25" height="25" fill="white" transform="matrix(-0.99998 0.00627382 0.00627382 0.99998 24.9995 0)"/>
</clipPath>
</defs>
</svg>
