<svg width="48" height="48" viewBox="0 0 48 48" fill="none" xmlns="http://www.w3.org/2000/svg">
<path d="M23.9922 13.9955V41.9864" stroke="white" stroke-width="3.9987" stroke-linecap="round" stroke-linejoin="round"/>
<path d="M5.99804 35.9883C5.46778 35.9883 4.95923 35.7777 4.58428 35.4027C4.20933 35.0278 3.99869 34.5192 3.99869 33.989V7.9974C3.99869 7.46714 4.20933 6.95859 4.58428 6.58364C4.95923 6.20869 5.46778 5.99805 5.99804 5.99805H15.9948C18.1158 5.99805 20.15 6.84063 21.6498 8.34043C23.1496 9.84024 23.9922 11.8744 23.9922 13.9954C23.9922 11.8744 24.8348 9.84024 26.3346 8.34043C27.8344 6.84063 29.8686 5.99805 31.9896 5.99805H41.9863C42.5166 5.99805 43.0252 6.20869 43.4001 6.58364C43.7751 6.95859 43.9857 7.46714 43.9857 7.9974V33.989C43.9857 34.5192 43.7751 35.0278 43.4001 35.4027C43.0252 35.7777 42.5166 35.9883 41.9863 35.9883H29.9902C28.3995 35.9883 26.8738 36.6202 25.749 37.7451C24.6241 38.8699 23.9922 40.3956 23.9922 41.9864C23.9922 40.3956 23.3603 38.8699 22.2354 37.7451C21.1106 36.6202 19.5849 35.9883 17.9941 35.9883H5.99804Z" stroke="white" stroke-width="3.9987" stroke-linecap="round" stroke-linejoin="round"/>
</svg>
