<svg width="20" height="20" viewBox="0 0 20 20" fill="none" xmlns="http://www.w3.org/2000/svg">
<g clip-path="url(#clip0_338_1206)">
<path d="M2.49215 13.6117C2.61463 13.9207 2.64189 14.2592 2.57045 14.5837L1.68337 17.3241C1.65479 17.4631 1.66218 17.607 1.70484 17.7424C1.7475 17.8777 1.82402 17.9998 1.92714 18.0973C2.03027 18.1947 2.15657 18.2642 2.29408 18.2992C2.43159 18.3341 2.57575 18.3334 2.71288 18.297L5.55569 17.4657C5.86197 17.4049 6.17916 17.4315 6.47108 17.5423C8.24972 18.373 10.2646 18.5487 12.1601 18.0385C14.0557 17.5284 15.7102 16.3651 16.8317 14.754C17.9532 13.1428 18.4696 11.1874 18.2898 9.2326C18.1101 7.27782 17.2457 5.44934 15.8491 4.06977C14.4526 2.69021 12.6137 1.84821 10.6569 1.69233C8.70007 1.53645 6.75106 2.07672 5.15375 3.2178C3.55643 4.35888 2.41347 6.02746 1.9265 7.92913C1.43953 9.8308 1.63987 11.8434 2.49215 13.6117Z" stroke="#9810FA" stroke-width="1.66587" stroke-linecap="round" stroke-linejoin="round"/>
</g>
<defs>
<clipPath id="clip0_338_1206">
<rect width="19.9904" height="19.9904" fill="white"/>
</clipPath>
</defs>
</svg>
