<svg width="20" height="20" viewBox="0 0 20 20" fill="none" xmlns="http://www.w3.org/2000/svg">
<g clip-path="url(#clip0_443_206)">
<path d="M9.99512 5.83057V17.4917" stroke="#C27AFF" stroke-width="1.66587" stroke-linecap="round" stroke-linejoin="round"/>
<path d="M2.49871 14.993C2.2778 14.993 2.06594 14.9053 1.90973 14.7491C1.75353 14.5929 1.66577 14.381 1.66577 14.1601V3.33196C1.66577 3.11105 1.75353 2.89919 1.90973 2.74298C2.06594 2.58678 2.2778 2.49902 2.49871 2.49902H6.66338C7.54701 2.49902 8.39445 2.85004 9.01927 3.47487C9.6441 4.09969 9.99512 4.94713 9.99512 5.83076C9.99512 4.94713 10.3461 4.09969 10.971 3.47487C11.5958 2.85004 12.4432 2.49902 13.3269 2.49902H17.4915C17.7124 2.49902 17.9243 2.58678 18.0805 2.74298C18.2367 2.89919 18.3245 3.11105 18.3245 3.33196V14.1601C18.3245 14.381 18.2367 14.5929 18.0805 14.7491C17.9243 14.9053 17.7124 14.993 17.4915 14.993H12.4939C11.8312 14.993 11.1956 15.2563 10.727 15.7249C10.2584 16.1935 9.99512 16.8291 9.99512 17.4918C9.99512 16.8291 9.73185 16.1935 9.26324 15.7249C8.79462 15.2563 8.15904 14.993 7.49631 14.993H2.49871Z" stroke="#C27AFF" stroke-width="1.66587" stroke-linecap="round" stroke-linejoin="round"/>
</g>
<defs>
<clipPath id="clip0_443_206">
<rect width="19.9904" height="19.9904" fill="white"/>
</clipPath>
</defs>
</svg>
