<svg width="18" height="18" viewBox="0 0 18 18" fill="none" xmlns="http://www.w3.org/2000/svg">
<g clip-path="url(#clip0_4_25696)">
<path d="M17.82 9.20457C17.82 8.56644 17.7628 7.95272 17.6564 7.36364H9.17999V10.845H14.0498C13.8354 11.97 13.1826 12.9232 12.2072 13.5614V15.8196H15.1364C16.8382 14.2528 17.82 11.9454 17.82 9.20457Z" fill="#4285F4"/>
<path d="M9.18001 18C11.61 18 13.6473 17.194 15.1364 15.8196L12.2073 13.5614C11.3768 14.1014 10.3582 14.4204 9.18001 14.4204C6.83592 14.4204 4.84365 12.8372 4.10729 10.71H1.09637V13.0418C2.57729 15.9832 5.64547 18 9.18001 18Z" fill="#34A853"/>
<path d="M4.10728 10.71C3.92728 10.17 3.82091 9.59319 3.82091 9C3.82091 8.40682 3.92728 7.83 4.10728 7.29V4.95818H1.09637C0.490916 6.17318 0.143188 7.54772 0.143188 9C0.143188 10.4522 0.490916 11.8268 1.09637 13.0418L4.10728 10.71Z" fill="#FBBC05"/>
<path d="M9.18001 3.57954C10.4686 3.57954 11.6141 4.03364 12.51 4.88864L15.1118 2.28682C13.6432 0.834546 11.606 2.38419e-07 9.18001 2.38419e-07C5.64547 2.38419e-07 2.57729 2.01682 1.09637 4.95818L4.10729 7.29C4.84365 5.16272 6.83592 3.57954 9.18001 3.57954Z" fill="#EA4335"/>
</g>
<defs>
<clipPath id="clip0_4_25696">
<rect width="18" height="18" fill="white"/>
</clipPath>
</defs>
</svg>
