<svg width="20" height="20" viewBox="0 0 20 20" fill="none" xmlns="http://www.w3.org/2000/svg">
<g clip-path="url(#clip0_306_1636)">
<path d="M9.99524 18.3245C14.5954 18.3245 18.3246 14.5953 18.3246 9.99512C18.3246 5.39495 14.5954 1.66577 9.99524 1.66577C5.39507 1.66577 1.66589 5.39495 1.66589 9.99512C1.66589 14.5953 5.39507 18.3245 9.99524 18.3245Z" stroke="#9810FA" stroke-width="1.66587" stroke-linecap="round" stroke-linejoin="round"/>
<path d="M7.57141 7.4965C7.76724 6.93982 8.15376 6.47042 8.66252 6.17141C9.17128 5.87241 9.76944 5.76311 10.3511 5.86288C10.9327 5.96264 11.4602 6.26503 11.8403 6.71648C12.2203 7.16794 12.4283 7.73932 12.4274 8.32944C12.4274 9.99531 9.92862 10.8282 9.92862 10.8282" stroke="#9810FA" stroke-width="1.66587" stroke-linecap="round" stroke-linejoin="round"/>
<path d="M9.99524 14.1599H10.0036" stroke="#9810FA" stroke-width="1.66587" stroke-linecap="round" stroke-linejoin="round"/>
</g>
<defs>
<clipPath id="clip0_306_1636">
<rect width="19.9904" height="19.9904" fill="white"/>
</clipPath>
</defs>
</svg>
