<svg width="16" height="16" viewBox="0 0 16 16" fill="none" xmlns="http://www.w3.org/2000/svg">
<g clip-path="url(#clip0_280_3525)">
<path d="M14.6562 11.3253C14.6562 11.6786 14.5158 12.0175 14.2659 12.2674C14.016 12.5173 13.6771 12.6576 13.3238 12.6576H4.54866C4.19532 12.6577 3.85648 12.7981 3.60666 13.048L2.1397 14.515C2.07355 14.5811 1.98928 14.6262 1.89753 14.6444C1.80579 14.6627 1.71069 14.6533 1.62427 14.6175C1.53785 14.5817 1.46398 14.5211 1.41201 14.4433C1.36003 14.3655 1.33229 14.2741 1.33228 14.1806V3.33092C1.33228 2.97755 1.47265 2.63865 1.72252 2.38878C1.97239 2.13891 2.31129 1.99854 2.66466 1.99854H13.3238C13.6771 1.99854 14.016 2.13891 14.2659 2.38878C14.5158 2.63865 14.6562 2.97755 14.6562 3.33092V11.3253Z" stroke="#9333EA" stroke-width="1.33239" stroke-linecap="round" stroke-linejoin="round"/>
</g>
<defs>
<clipPath id="clip0_280_3525">
<rect width="15.9887" height="15.9887" fill="white"/>
</clipPath>
</defs>
</svg>
