<svg width="20" height="20" viewBox="0 0 20 20" fill="none" xmlns="http://www.w3.org/2000/svg">
<g clip-path="url(#clip0_278_1899)">
<path d="M9.99512 15.8257V18.3245" stroke="#AD46FF" stroke-width="1.66587" stroke-linecap="round" stroke-linejoin="round"/>
<path d="M15.8259 8.32959V9.99546C15.8259 11.5418 15.2116 13.0248 14.1182 14.1183C13.0247 15.2117 11.5417 15.826 9.99534 15.826C8.44898 15.826 6.96596 15.2117 5.87252 14.1183C4.77908 13.0248 4.16479 11.5418 4.16479 9.99546V8.32959" stroke="#AD46FF" stroke-width="1.66587" stroke-linecap="round" stroke-linejoin="round"/>
<path d="M12.4939 4.16482C12.4939 2.78477 11.3752 1.66602 9.99514 1.66602C8.61509 1.66602 7.49634 2.78477 7.49634 4.16482V9.99536C7.49634 11.3754 8.61509 12.4942 9.99514 12.4942C11.3752 12.4942 12.4939 11.3754 12.4939 9.99536V4.16482Z" stroke="#AD46FF" stroke-width="1.66587" stroke-linecap="round" stroke-linejoin="round"/>
</g>
<defs>
<clipPath id="clip0_278_1899">
<rect width="19.9904" height="19.9904" fill="white"/>
</clipPath>
</defs>
</svg>
