<svg width="20" height="20" viewBox="0 0 20 20" fill="none" xmlns="http://www.w3.org/2000/svg">
<path d="M17.4791 10.3999C17.4011 11.846 16.9058 13.2386 16.0532 14.4092C15.2006 15.5798 14.0272 16.4784 12.6748 16.9964C11.3224 17.5143 9.84888 17.6295 8.43243 17.3279C7.01598 17.0263 5.71721 16.3209 4.69312 15.2969C3.66904 14.2729 2.96347 12.9742 2.66172 11.5578C2.35998 10.1414 2.47496 8.66788 2.99278 7.31542C3.5106 5.96296 4.40909 4.78944 5.57963 3.93672C6.75017 3.084 8.14264 2.58859 9.58873 2.51037C9.92607 2.49205 10.1027 2.89352 9.92357 3.17922C9.3246 4.13755 9.06812 5.27061 9.196 6.39347C9.32387 7.51634 9.82855 8.56271 10.6277 9.36182C11.4268 10.1609 12.4732 10.6656 13.596 10.7935C14.7189 10.9214 15.8519 10.6649 16.8103 10.0659C17.0968 9.88684 17.4974 10.0626 17.4791 10.3999Z" stroke="#9810FA" stroke-width="1.66587" stroke-linecap="round" stroke-linejoin="round"/>
</svg>
