<svg width="20" height="20" viewBox="0 0 20 20" fill="none" xmlns="http://www.w3.org/2000/svg">
<path d="M8.55255 17.4917C8.69877 17.7449 8.90906 17.9552 9.1623 18.1014C9.41553 18.2476 9.70279 18.3246 9.99519 18.3246C10.2876 18.3246 10.5749 18.2476 10.8281 18.1014C11.0813 17.9552 11.2916 17.7449 11.4378 17.4917" stroke="#9810FA" stroke-width="1.66587" stroke-linecap="round" stroke-linejoin="round"/>
<path d="M2.71701 12.7655C2.6082 12.8847 2.53639 13.033 2.51032 13.1924C2.48425 13.3517 2.50504 13.5151 2.57017 13.6629C2.63529 13.8106 2.74194 13.9362 2.87715 14.0244C3.01235 14.1126 3.17028 14.1597 3.33172 14.1598H16.6587C16.8201 14.1598 16.9781 14.113 17.1133 14.0249C17.2486 13.9369 17.3554 13.8114 17.4207 13.6638C17.486 13.5162 17.507 13.3527 17.4811 13.1934C17.4553 13.0341 17.3837 12.8857 17.275 12.7663C16.1672 11.6243 14.9928 10.4108 14.9928 6.66338C14.9928 5.33793 14.4663 4.06677 13.529 3.12954C12.5918 2.1923 11.3206 1.66577 9.99519 1.66577C8.66975 1.66577 7.39858 2.1923 6.46135 3.12954C5.52412 4.06677 4.99759 5.33793 4.99759 6.66338C4.99759 10.4108 3.82231 11.6243 2.71701 12.7655Z" stroke="#9810FA" stroke-width="1.66587" stroke-linecap="round" stroke-linejoin="round"/>
</svg>
