<svg width="20" height="20" viewBox="0 0 20 20" fill="none" xmlns="http://www.w3.org/2000/svg">
<path d="M7 1.6665V8.33317L9.5 5.83317L12 8.33317V1.6665" stroke="#C27AFF" stroke-width="1.67" stroke-linecap="round" stroke-linejoin="round"/>
<path d="M3 16.2498V3.74984C3 3.1973 3.21949 2.6674 3.61019 2.2767C4.00089 1.886 4.5308 1.6665 5.08333 1.6665H15.5C15.721 1.6665 15.933 1.7543 16.0893 1.91058C16.2455 2.06686 16.3333 2.27882 16.3333 2.49984V17.4998C16.3333 17.7209 16.2455 17.9328 16.0893 18.0891C15.933 18.2454 15.721 18.3332 15.5 18.3332H5.08333C4.5308 18.3332 4.00089 18.1137 3.61019 17.723C3.21949 17.3323 3 16.8024 3 16.2498ZM3 16.2498C3 15.6973 3.21949 15.1674 3.61019 14.7767C4.00089 14.386 4.5308 14.1665 5.08333 14.1665H16.3333" stroke="#C27AFF" stroke-width="1.67" stroke-linecap="round" stroke-linejoin="round"/>
</svg>
