<svg width="20" height="20" viewBox="0 0 20 20" fill="none" xmlns="http://www.w3.org/2000/svg">
<path d="M9.59957 1.91164C9.63607 1.8379 9.69246 1.77582 9.76237 1.73242C9.83228 1.68901 9.91293 1.66602 9.99521 1.66602C10.0775 1.66602 10.1581 1.68901 10.2281 1.73242C10.298 1.77582 10.3544 1.8379 10.3909 1.91164L12.3149 5.80894C12.4417 6.06546 12.6288 6.28739 12.8602 6.45568C13.0916 6.62397 13.3604 6.7336 13.6435 6.77515L17.9464 7.40485C18.0279 7.41666 18.1045 7.45105 18.1675 7.50413C18.2305 7.55721 18.2774 7.62686 18.3029 7.70521C18.3284 7.78355 18.3314 7.86746 18.3117 7.94745C18.292 8.02744 18.2503 8.10031 18.1913 8.15782L15.0794 11.188C14.8742 11.388 14.7207 11.6349 14.632 11.9074C14.5434 12.1799 14.5223 12.4698 14.5705 12.7523L15.3052 17.0336C15.3196 17.1151 15.3108 17.199 15.2798 17.2757C15.2488 17.3524 15.1968 17.4189 15.1299 17.4675C15.0629 17.5162 14.9836 17.545 14.9011 17.5507C14.8185 17.5565 14.736 17.5389 14.663 17.5L10.8165 15.4777C10.563 15.3446 10.2811 15.275 9.9948 15.275C9.70853 15.275 9.42655 15.3446 9.17311 15.4777L5.32745 17.5C5.25443 17.5387 5.17202 17.5561 5.0896 17.5502C5.00719 17.5443 4.92807 17.5155 4.86125 17.4669C4.79443 17.4183 4.74259 17.3519 4.71162 17.2753C4.68066 17.1987 4.67181 17.115 4.68609 17.0336L5.4199 12.7531C5.46838 12.4705 5.44738 12.1804 5.35871 11.9077C5.27005 11.6351 5.11639 11.3881 4.91098 11.188L1.79914 8.15865C1.73966 8.10121 1.69751 8.02821 1.6775 7.94798C1.65748 7.86775 1.6604 7.78351 1.68592 7.70486C1.71145 7.62621 1.75854 7.55631 1.82186 7.50312C1.88517 7.44993 1.96214 7.41559 2.04402 7.40401L6.34613 6.77515C6.62954 6.73392 6.89869 6.62444 7.1304 6.45612C7.36212 6.28781 7.54947 6.06571 7.67632 5.80894L9.59957 1.91164Z" stroke="#9810FA" stroke-width="1.66587" stroke-linecap="round" stroke-linejoin="round"/>
</svg>
