<svg width="20" height="20" viewBox="0 0 20 20" fill="none" xmlns="http://www.w3.org/2000/svg">
<path d="M16.6587 10.8282C16.6587 14.9929 13.7434 17.0752 10.2784 18.283C10.097 18.3444 9.89986 18.3415 9.72034 18.2746C6.247 17.0752 3.33173 14.9929 3.33173 10.8282V4.99764C3.33173 4.77673 3.41948 4.56487 3.57569 4.40867C3.73189 4.25246 3.94375 4.16471 4.16466 4.16471C5.83053 4.16471 7.91287 3.16518 9.36217 1.89912C9.53863 1.74836 9.76311 1.66553 9.9952 1.66553C10.2273 1.66553 10.4518 1.74836 10.6282 1.89912C12.0859 3.17351 14.1599 4.16471 15.8257 4.16471C16.0467 4.16471 16.2585 4.25246 16.4147 4.40867C16.5709 4.56487 16.6587 4.77673 16.6587 4.99764V10.8282Z" stroke="#9810FA" stroke-width="1.66587" stroke-linecap="round" stroke-linejoin="round"/>
</svg>
