<svg width="16" height="16" viewBox="0 0 16 16" fill="none" xmlns="http://www.w3.org/2000/svg">
<g clip-path="url(#clip0_278_1906)">
<path d="M9.6838 14.4469C9.70911 14.51 9.75311 14.5638 9.80989 14.6012C9.86667 14.6385 9.93352 14.6576 10.0015 14.6559C10.0694 14.6541 10.1352 14.6316 10.19 14.5914C10.2448 14.5512 10.286 14.4952 10.308 14.4309L14.6383 1.77325C14.6596 1.71422 14.6637 1.65034 14.65 1.58908C14.6364 1.52783 14.6055 1.47173 14.5612 1.42735C14.5168 1.38297 14.4607 1.35215 14.3994 1.33849C14.3382 1.32483 14.2743 1.3289 14.2153 1.35022L1.55756 5.68048C1.49327 5.70253 1.43727 5.74371 1.39706 5.79851C1.35685 5.85331 1.33437 5.91909 1.33263 5.98703C1.33089 6.05498 1.34997 6.12183 1.38732 6.17861C1.42467 6.23539 1.4785 6.27939 1.54157 6.3047L6.82449 8.4232C6.9915 8.49006 7.14324 8.59006 7.27055 8.71714C7.39787 8.84423 7.49814 8.99579 7.5653 9.16268L9.6838 14.4469Z" stroke="white" stroke-width="1.33239" stroke-linecap="round" stroke-linejoin="round"/>
<path d="M14.5589 1.43018L7.27075 8.71767" stroke="white" stroke-width="1.33239" stroke-linecap="round" stroke-linejoin="round"/>
</g>
<defs>
<clipPath id="clip0_278_1906">
<rect width="15.9887" height="15.9887" fill="white"/>
</clipPath>
</defs>
</svg>
