<svg width="20" height="20" viewBox="0 0 20 20" fill="none" xmlns="http://www.w3.org/2000/svg">
<g clip-path="url(#clip0_443_225)">
<path d="M13.3269 17.4917V15.8259C13.3269 14.9422 12.9758 14.0948 12.351 13.47C11.7262 12.8452 10.8788 12.4941 9.99512 12.4941H4.99751C4.11388 12.4941 3.26644 12.8452 2.64162 13.47C2.01679 14.0948 1.66577 14.9422 1.66577 15.8259V17.4917" stroke="#C27AFF" stroke-width="1.66587" stroke-linecap="round" stroke-linejoin="round"/>
<path d="M13.3269 2.60547C14.0414 2.79069 14.6741 3.2079 15.1258 3.79162C15.5775 4.37534 15.8225 5.09252 15.8225 5.83059C15.8225 6.56866 15.5775 7.28584 15.1258 7.86956C14.6741 8.45328 14.0414 8.8705 13.3269 9.05571" stroke="#C27AFF" stroke-width="1.66587" stroke-linecap="round" stroke-linejoin="round"/>
<path d="M18.3245 17.4914V15.8255C18.3239 15.0873 18.0782 14.3702 17.626 13.7867C17.1737 13.2033 16.5404 12.7866 15.8257 12.6021" stroke="#C27AFF" stroke-width="1.66587" stroke-linecap="round" stroke-linejoin="round"/>
<path d="M7.49653 9.1625C9.3366 9.1625 10.8283 7.67083 10.8283 5.83076C10.8283 3.99069 9.3366 2.49902 7.49653 2.49902C5.65647 2.49902 4.16479 3.99069 4.16479 5.83076C4.16479 7.67083 5.65647 9.1625 7.49653 9.1625Z" stroke="#C27AFF" stroke-width="1.66587" stroke-linecap="round" stroke-linejoin="round"/>
</g>
<defs>
<clipPath id="clip0_443_225">
<rect width="19.9904" height="19.9904" fill="white"/>
</clipPath>
</defs>
</svg>
