<svg width="20" height="20" viewBox="0 0 20 20" fill="none" xmlns="http://www.w3.org/2000/svg">
<path d="M2.49878 9.99544C2.49878 11.4781 2.93844 12.9274 3.76215 14.1602C4.58587 15.393 5.75665 16.3538 7.12644 16.9212C8.49623 17.4886 10.0035 17.6371 11.4577 17.3478C12.9118 17.0586 14.2476 16.3446 15.296 15.2962C16.3443 14.2478 17.0583 12.9121 17.3476 11.4579C17.6368 10.0038 17.4884 8.49647 16.921 7.12668C16.3536 5.75689 15.3928 4.58611 14.16 3.7624C12.9272 2.93868 11.4778 2.49902 9.99519 2.49902C7.89949 2.50691 5.88796 3.32465 4.38121 4.78126L2.49878 6.6637" stroke="#C27AFF" stroke-width="1.66587" stroke-linecap="round" stroke-linejoin="round"/>
<path d="M2.49878 2.49902V6.6637H6.66345" stroke="#C27AFF" stroke-width="1.66587" stroke-linecap="round" stroke-linejoin="round"/>
<path d="M9.99512 5.83057V9.99524L13.3269 11.6611" stroke="#C27AFF" stroke-width="1.66587" stroke-linecap="round" stroke-linejoin="round"/>
</svg>
