<svg width="41" height="27" viewBox="0 0 41 27" fill="none" xmlns="http://www.w3.org/2000/svg">
<path d="M9.196 14.288L12.122 9.95602C12.122 9.95602 12.2107 10.184 12.388 10.64C12.5907 11.0707 12.7807 11.666 12.958 12.426C13.1353 13.186 13.224 14.06 13.224 15.048C13.224 16.036 13.034 17.0874 12.654 18.202C12.2993 19.2914 11.6533 20.3807 10.716 21.47C10.3107 21.926 9.86733 22.3567 9.386 22.762C8.93 23.1674 8.42333 23.5094 7.866 23.788C7.28333 24.092 6.51067 24.3834 5.548 24.662C4.58533 24.9407 3.59733 25.2067 2.584 25.46C1.57067 25.688 0.709333 25.9034 0 26.106L2.812 21.052C3.572 20.9 4.42067 20.71 5.358 20.482C6.29533 20.254 7.20733 20.0007 8.094 19.722C8.98067 19.4434 9.74067 19.1647 10.374 18.886C10.3993 18.3794 10.2727 17.6827 9.994 16.796C9.74067 15.884 9.47467 15.048 9.196 14.288ZM18.7271 4.48402L21.5391 1.66893e-05L22.6031 16.15L19.7911 20.634L18.7271 4.48402ZM38.5079 8.61202C38.0012 9.27068 37.4819 9.91668 36.9499 10.55C36.4432 11.2087 35.9239 11.8674 35.3919 12.526L32.6939 10.018C33.2005 9.35935 33.7199 8.70068 34.2519 8.04202C34.7839 7.38335 35.3032 6.73735 35.8099 6.10402L38.5079 8.61202ZM40.8365 15.77C40.6845 16.606 40.4438 17.4927 40.1145 18.43C39.8105 19.342 39.4685 20.2034 39.0885 21.014C38.7085 21.7994 38.3158 22.4327 37.9105 22.914C37.0492 23.9274 35.9598 24.7254 34.6425 25.308C33.3505 25.8907 31.7418 26.1567 29.8165 26.106C28.6258 26.0807 27.5618 26.03 26.6245 25.954C25.6872 25.8527 24.9652 25.726 24.4585 25.574C23.9518 25.422 23.7365 25.2194 23.8125 24.966C23.9138 24.6874 24.3825 24.358 25.2185 23.978C26.0798 23.5727 27.4098 23.0914 29.2085 22.534C30.7538 22.0527 32.2485 21.5334 33.6925 20.976C35.1618 20.4187 36.5045 19.7347 37.7205 18.924C38.8605 18.164 39.7345 17.1127 40.3425 15.77C40.3932 15.618 40.4818 15.5547 40.6085 15.58C40.7352 15.58 40.8112 15.6434 40.8365 15.77Z" fill="white"/>
</svg>
